<svg width="211" height="80" viewBox="0 0 211 80" fill="none" xmlns="http://www.w3.org/2000/svg">
<g clip-path="url(#clip0_26_38)">
<path fill-rule="evenodd" clip-rule="evenodd" d="M151.537 10.603C151.537 8.703 152.677 7.183 154.339 7.183C156.003 7.183 157.143 8.703 157.143 10.603C157.143 12.503 156.003 14.023 154.339 14.023C152.677 14.023 151.537 12.503 151.537 10.603ZM156.192 10.603C156.192 9.083 155.384 8.086 154.339 8.086C153.294 8.086 152.486 9.083 152.486 10.603C152.486 12.123 153.294 13.12 154.339 13.12C155.384 13.12 156.192 12.123 156.192 10.603ZM158.38 13.927H159.235V7.28H158.381L158.38 13.927ZM160.663 13.927H161.517V7.28H160.663V13.927ZM162.61 13.215L163.181 12.693C163.371 12.978 163.656 13.215 164.037 13.215C164.464 13.215 164.749 12.978 164.749 12.645C164.749 12.265 164.417 12.122 163.989 11.933C163.466 11.695 162.801 11.401 162.801 10.556C162.801 9.89 163.275 9.273 164.131 9.273C164.392 9.2703 164.65 9.32404 164.888 9.43054C165.127 9.53703 165.339 9.69377 165.511 9.89L164.949 10.394C164.854 10.299 164.654 10.033 164.227 10.033C163.894 10.033 163.657 10.271 163.657 10.556C163.657 10.936 164.037 11.125 164.464 11.315C165.054 11.571 165.605 11.895 165.605 12.693C165.605 13.453 165.035 14.022 164.084 14.022C163.181 14.022 162.658 13.31 162.61 13.215ZM166.462 11.647C166.462 10.271 167.317 9.274 168.457 9.274C169.407 9.274 169.93 9.985 170.072 10.223L169.455 10.698C169.36 10.508 169.027 10.08 168.457 10.08C167.792 10.08 167.317 10.745 167.317 11.647C167.317 12.616 167.81 13.215 168.457 13.215C169.075 13.215 169.455 12.74 169.55 12.598L170.12 13.072C169.978 13.31 169.408 14.022 168.457 14.022C167.317 14.022 166.462 13.025 166.462 11.647ZM170.74 11.647C170.74 10.271 171.595 9.274 172.735 9.274C173.876 9.274 174.732 10.271 174.732 11.647C174.732 13.025 173.876 14.022 172.735 14.022C171.595 14.022 170.74 13.025 170.74 11.647ZM173.876 11.647C173.876 10.745 173.401 10.08 172.735 10.08C172.07 10.08 171.595 10.745 171.595 11.647C171.595 12.55 172.07 13.215 172.735 13.215C173.401 13.215 173.876 12.55 173.876 11.647ZM175.73 7.849C175.73 7.564 175.968 7.326 176.253 7.326C176.539 7.326 176.776 7.564 176.776 7.849C176.775 7.98721 176.719 8.11938 176.621 8.21702C176.523 8.31466 176.391 8.36996 176.253 8.371C176.115 8.36996 175.983 8.31466 175.885 8.21702C175.787 8.11938 175.731 7.98721 175.73 7.849ZM175.826 13.927H176.681V9.368H175.826V13.928V13.927ZM178.06 13.927H178.915V7.28H178.06V13.927ZM153.104 19.266H151.537V18.364H155.622V19.266H154.054V25.013H153.104V19.266ZM155.814 22.733C155.814 21.356 156.67 20.358 157.81 20.358C158.95 20.358 159.71 21.356 159.71 22.59C159.71 22.828 159.662 23.066 159.662 23.066H156.688C156.764 23.779 157.24 24.3 157.904 24.3C158.617 24.3 159.046 23.826 159.093 23.73L159.568 24.253C159.381 24.5204 159.132 24.738 158.842 24.8871C158.552 25.0361 158.23 25.1119 157.904 25.108C156.641 25.108 155.814 24.062 155.814 22.733ZM158.846 22.305C158.779 21.584 158.351 21.165 157.81 21.165C157.258 21.165 156.84 21.603 156.697 22.305H158.846ZM160.71 18.934C160.71 18.649 160.948 18.411 161.233 18.411C161.518 18.411 161.756 18.649 161.756 18.934C161.755 19.0722 161.699 19.2044 161.601 19.302C161.503 19.3997 161.371 19.455 161.233 19.456C161.095 19.4552 160.962 19.4 160.864 19.3023C160.767 19.2046 160.711 19.0723 160.71 18.934ZM160.806 25.013H161.66V20.453H160.806V25.013ZM162.755 22.733C162.755 21.356 163.61 20.358 164.75 20.358C165.701 20.358 166.223 21.07 166.366 21.308L165.748 21.783C165.653 21.593 165.319 21.166 164.75 21.166C164.085 21.166 163.61 21.831 163.61 22.733C163.61 23.701 164.104 24.3 164.75 24.3C165.368 24.3 165.748 23.826 165.843 23.683L166.413 24.158C166.271 24.395 165.701 25.108 164.75 25.108C163.61 25.108 162.755 24.11 162.755 22.733ZM167.364 20.453H168.22V20.976H168.248C168.374 20.784 168.546 20.6268 168.749 20.5188C168.952 20.4108 169.178 20.3555 169.408 20.358C170.311 20.358 170.881 20.928 170.881 22.116V25.012H170.026V22.163C170.026 21.546 169.693 21.166 169.218 21.166C168.601 21.166 168.22 21.546 168.22 22.306V25.012H167.364V20.453ZM171.977 22.733C171.977 21.356 172.831 20.358 173.972 20.358C175.112 20.358 175.872 21.356 175.872 22.59C175.872 22.828 175.824 23.066 175.824 23.066H172.85C172.926 23.779 173.402 24.3 174.066 24.3C174.779 24.3 175.208 23.826 175.255 23.73L175.73 24.253C175.543 24.5204 175.294 24.738 175.004 24.8871C174.714 25.0361 174.392 25.1119 174.066 25.108C172.803 25.108 171.976 24.062 171.976 22.733M175.008 22.305C174.941 21.584 174.513 21.165 173.972 21.165C173.42 21.165 173.002 21.603 172.859 22.305H175.008ZM176.729 22.733C176.729 21.356 177.584 20.358 178.725 20.358C179.865 20.358 180.721 21.356 180.721 22.733C180.721 24.11 179.865 25.108 178.725 25.108C177.585 25.108 176.729 24.11 176.729 22.733ZM179.865 22.733C179.865 21.831 179.39 21.166 178.725 21.166C178.059 21.166 177.585 21.831 177.585 22.733C177.585 23.636 178.059 24.3 178.725 24.3C179.39 24.3 179.865 23.636 179.865 22.733ZM181.863 25.012H182.718V18.363H181.863V25.012ZM183.812 23.825C183.812 23.113 184.24 22.552 185.143 22.354L186.33 22.087V21.945C186.33 21.498 186.046 21.165 185.57 21.165C185 21.165 184.695 21.575 184.6 21.717L184.05 21.213C184.145 21.07 184.62 20.359 185.618 20.359C186.568 20.359 187.186 20.976 187.186 21.926V25.012H186.33V24.395H186.302C186.197 24.6119 186.032 24.7941 185.826 24.9205C185.621 25.0468 185.384 25.1118 185.143 25.108C184.383 25.108 183.813 24.586 183.813 23.825M186.33 23.065V22.761L185.333 23.008C184.905 23.113 184.667 23.35 184.667 23.73C184.665 23.8117 184.679 23.8931 184.709 23.9692C184.739 24.0452 184.784 24.1143 184.842 24.1722C184.9 24.23 184.969 24.2755 185.045 24.3057C185.121 24.336 185.202 24.3504 185.284 24.348C185.904 24.348 186.33 23.825 186.33 23.065ZM188.564 25.012H189.42V20.453H188.564V25.013V25.012ZM189.23 18.316H190.18L189.325 19.694H188.66L189.23 18.316ZM190.515 22.733C190.515 21.356 191.37 20.358 192.51 20.358C193.65 20.358 194.506 21.356 194.506 22.733C194.506 24.11 193.651 25.108 192.51 25.108C191.37 25.108 190.515 24.11 190.515 22.733ZM193.651 22.733C193.651 21.831 193.175 21.166 192.511 21.166C191.844 21.166 191.371 21.831 191.371 22.733C191.371 23.636 191.844 24.3 192.511 24.3C193.175 24.3 193.651 23.636 193.651 22.733ZM195.362 22.733C195.362 21.356 196.218 20.358 197.357 20.358C198.309 20.358 198.831 21.07 198.974 21.308L198.356 21.783C198.261 21.593 197.927 21.166 197.357 21.166C196.693 21.166 196.217 21.831 196.217 22.733C196.217 23.701 196.711 24.3 197.357 24.3C197.975 24.3 198.357 23.826 198.45 23.683L199.02 24.158C198.879 24.395 198.309 25.108 197.357 25.108C196.217 25.108 195.362 24.11 195.362 22.733ZM200.021 18.364H200.877V20.976H200.905C201.031 20.7842 201.203 20.627 201.406 20.519C201.608 20.4111 201.835 20.3557 202.064 20.358C202.968 20.358 203.537 20.928 203.537 22.116V25.013H202.682V22.163C202.682 21.546 202.349 21.165 201.874 21.165C201.256 21.165 200.877 21.545 200.877 22.305V25.013H200.021V18.364ZM205.107 23.778V21.26H204.441V20.453H204.821C205.059 20.453 205.202 20.31 205.202 20.025V18.98H205.962V20.453H206.77V21.26H205.962V23.73C205.962 24.11 206.152 24.3 206.485 24.3C206.675 24.3 206.817 24.252 206.912 24.204V25.012C206.77 25.059 206.532 25.106 206.295 25.106C205.534 25.106 205.107 24.68 205.107 23.776M207.626 23.825C207.626 23.113 208.053 22.552 208.956 22.354L210.143 22.087V21.945C210.143 21.498 209.859 21.165 209.383 21.165C208.813 21.165 208.51 21.575 208.414 21.717L207.864 21.213C207.959 21.07 208.434 20.359 209.432 20.359C210.382 20.359 211 20.976 211 21.926V25.012H210.143V24.395H210.116C210.01 24.6119 209.845 24.7941 209.64 24.9204C209.434 25.0467 209.197 25.1118 208.956 25.108C208.196 25.108 207.626 24.586 207.626 23.825ZM210.143 23.065V22.761L209.146 23.008C208.719 23.113 208.481 23.35 208.481 23.73C208.479 23.8118 208.493 23.8933 208.523 23.9694C208.553 24.0455 208.599 24.1147 208.656 24.1725C208.714 24.2304 208.783 24.2759 208.86 24.306C208.936 24.3362 209.017 24.3505 209.099 24.348C209.717 24.348 210.143 23.825 210.143 23.065ZM151.537 54.844L152.127 54.198C152.458 54.672 152.915 54.938 153.437 54.938C154.007 54.938 154.387 54.512 154.387 54.038C154.387 53.334 153.864 53.038 153.257 52.745C152.525 52.393 151.774 51.899 151.774 50.712C151.774 49.715 152.486 49.002 153.579 49.002C154.244 49.002 154.815 49.335 155.195 49.857L154.567 50.456C154.463 50.2879 154.317 50.1492 154.144 50.0528C153.971 49.9564 153.777 49.9055 153.579 49.905C153.057 49.905 152.724 50.237 152.724 50.712C152.724 51.415 153.294 51.709 153.846 52.004C154.531 52.374 155.338 52.849 155.338 54.037C155.338 55.128 154.482 55.841 153.39 55.841C153.022 55.8445 152.659 55.7549 152.335 55.5806C152.011 55.4063 151.737 55.1529 151.537 54.844ZM156.195 53.466C156.195 52.089 157.05 51.092 158.19 51.092C159.33 51.092 160.186 52.089 160.186 53.466C160.186 54.843 159.331 55.841 158.19 55.841C157.05 55.841 156.195 54.843 156.195 53.466ZM159.331 53.466C159.331 52.564 158.855 51.9 158.19 51.9C157.525 51.9 157.05 52.564 157.05 53.466C157.05 54.369 157.525 55.034 158.19 55.034C158.855 55.034 159.331 54.369 159.331 53.466ZM161.281 54.084V51.187H162.136V54.037C162.136 54.654 162.469 55.034 162.944 55.034C163.562 55.034 163.942 54.654 163.942 53.894V51.187H164.797V55.747H163.942V55.224H163.913C163.675 55.604 163.229 55.841 162.753 55.841C161.851 55.841 161.281 55.271 161.281 54.084ZM166.462 54.511V51.995H165.796V51.187H166.176C166.413 51.187 166.557 51.045 166.557 50.76V49.714H167.317V51.187H168.125V51.995H167.317V54.464C167.317 54.844 167.507 55.034 167.84 55.034C168.03 55.034 168.172 54.986 168.266 54.939V55.746C168.067 55.8085 167.859 55.8405 167.65 55.841C166.888 55.841 166.462 55.414 166.462 54.511ZM169.41 49.097H170.265V51.709H170.292C170.53 51.329 170.977 51.092 171.452 51.092C172.356 51.092 172.926 51.662 172.926 52.849V55.746H172.071V52.897C172.071 52.279 171.737 51.899 171.262 51.899C170.644 51.899 170.265 52.279 170.265 53.039V55.746H169.409V49.097M176.397 49.097H180.103V50H177.347V51.852H179.533V52.756H177.347V54.844H180.199V55.747H176.397V49.097ZM180.96 54.559C180.96 53.846 181.388 53.286 182.29 53.087L183.477 52.82V52.678C183.477 52.232 183.193 51.899 182.718 51.899C182.148 51.899 181.844 52.308 181.748 52.45L181.198 51.946C181.293 51.804 181.768 51.092 182.766 51.092C183.716 51.092 184.334 51.709 184.334 52.659V55.745H183.477V55.129H183.45C183.344 55.3457 183.179 55.5279 182.974 55.654C182.768 55.7801 182.531 55.845 182.29 55.841C181.53 55.841 180.96 55.319 180.96 54.559ZM183.477 53.799V53.495L182.481 53.742C182.053 53.846 181.815 54.084 181.815 54.463C181.813 54.5448 181.827 54.6263 181.857 54.7024C181.887 54.7785 181.933 54.8477 181.99 54.9055C182.048 54.9634 182.117 55.0089 182.194 55.039C182.27 55.0692 182.351 55.0835 182.433 55.081C183.051 55.081 183.477 54.559 183.477 53.799ZM185.428 55.034L185.998 54.511C186.188 54.796 186.473 55.034 186.853 55.034C187.281 55.034 187.566 54.796 187.566 54.464C187.566 54.084 187.234 53.941 186.806 53.751C186.283 53.514 185.618 53.22 185.618 52.374C185.618 51.709 186.092 51.092 186.948 51.092C187.566 51.092 188.041 51.377 188.327 51.709L187.766 52.213C187.671 52.118 187.471 51.851 187.044 51.851C186.711 51.851 186.473 52.089 186.473 52.374C186.473 52.754 186.853 52.944 187.281 53.134C187.871 53.391 188.422 53.714 188.422 54.511C188.422 55.271 187.851 55.841 186.901 55.841C185.998 55.841 185.476 55.129 185.428 55.034ZM189.849 54.511V51.995H189.184V51.187H189.564C189.801 51.187 189.944 51.045 189.944 50.76V49.714H190.704V51.187H191.512V51.995H190.704V54.464C190.704 54.844 190.894 55.034 191.227 55.034C191.417 55.034 191.559 54.986 191.654 54.939V55.746C191.512 55.794 191.274 55.841 191.037 55.841C190.275 55.841 189.849 55.414 189.849 54.511ZM153.104 61.085H151.537V60.183H155.622V61.085H154.054V66.832H153.104V61.085ZM155.814 64.552C155.814 63.175 156.67 62.177 157.81 62.177C158.95 62.177 159.71 63.175 159.71 64.409C159.71 64.647 159.662 64.884 159.662 64.884H156.688C156.764 65.597 157.24 66.119 157.904 66.119C158.617 66.119 159.046 65.644 159.093 65.549L159.568 66.071C159.381 66.3385 159.132 66.5564 158.842 66.7056C158.552 66.8548 158.23 66.9308 157.904 66.927C156.641 66.927 155.814 65.882 155.814 64.552ZM158.846 64.124C158.779 63.402 158.351 62.985 157.81 62.985C157.258 62.985 156.84 63.421 156.697 64.125L158.846 64.124ZM160.568 64.552C160.568 63.175 161.423 62.177 162.563 62.177C163.514 62.177 164.036 62.89 164.179 63.127L163.561 63.602C163.466 63.412 163.133 62.985 162.563 62.985C161.898 62.985 161.423 63.65 161.423 64.552C161.423 65.52 161.917 66.119 162.563 66.119C163.181 66.119 163.561 65.644 163.656 65.502L164.226 65.976C164.084 66.214 163.514 66.926 162.563 66.926C161.423 66.926 160.568 65.929 160.568 64.552ZM165.226 60.183H166.081V62.795H166.11C166.348 62.415 166.793 62.178 167.268 62.178C168.172 62.178 168.742 62.748 168.742 63.934V66.832H167.887V63.982C167.887 63.364 167.554 62.984 167.079 62.984C166.461 62.984 166.081 63.364 166.081 64.124V66.832H165.226V60.183ZM170.075 62.272H170.93V62.794H170.959C171.196 62.415 171.642 62.177 172.117 62.177C173.021 62.177 173.591 62.747 173.591 63.935V66.831H172.736V63.981C172.736 63.365 172.403 62.984 171.928 62.984C171.31 62.984 170.93 63.364 170.93 64.124V66.831H170.075V62.272ZM174.686 64.552C174.686 63.175 175.541 62.177 176.68 62.177C177.821 62.177 178.677 63.175 178.677 64.552C178.677 65.929 177.821 66.927 176.68 66.927C175.54 66.927 174.686 65.929 174.686 64.552ZM177.821 64.552C177.821 63.65 177.346 62.985 176.68 62.985C176.015 62.985 175.54 63.65 175.54 64.552C175.54 65.454 176.015 66.119 176.68 66.119C177.346 66.119 177.821 65.454 177.821 64.552ZM179.82 66.831H180.673V60.183H179.819L179.82 66.831ZM181.816 64.552C181.816 63.175 182.671 62.177 183.81 62.177C184.952 62.177 185.807 63.175 185.807 64.552C185.807 65.929 184.952 66.927 183.81 66.927C182.67 66.927 181.816 65.929 181.816 64.552ZM184.952 64.552C184.952 63.65 184.476 62.985 183.81 62.985C183.146 62.985 182.67 63.65 182.67 64.552C182.67 65.454 183.146 66.119 183.81 66.119C184.476 66.119 184.952 65.454 184.952 64.552ZM186.777 67.895L187.329 67.372C187.424 67.515 187.804 68.066 188.469 68.066C189.182 68.066 189.657 67.448 189.657 66.594V66.072H189.628C189.504 66.2794 189.326 66.4502 189.115 66.5671C188.903 66.6839 188.664 66.7425 188.422 66.737C187.377 66.737 186.664 65.787 186.664 64.457C186.664 63.127 187.377 62.177 188.422 62.177C189.087 62.177 189.448 62.557 189.628 62.842H189.658V62.272H190.512V66.594C190.512 67.877 189.705 68.826 188.517 68.826C187.377 68.826 186.92 68.086 186.777 67.896M189.657 64.456C189.657 63.564 189.21 62.937 188.593 62.937C187.993 62.937 187.519 63.554 187.519 64.457C187.519 65.359 187.994 65.977 188.593 65.977C189.21 65.977 189.657 65.349 189.657 64.456ZM191.75 60.753C191.75 60.468 191.988 60.23 192.273 60.23C192.558 60.23 192.795 60.468 192.795 60.753C192.794 60.8912 192.739 61.0235 192.641 61.1213C192.543 61.2191 192.411 61.2747 192.273 61.276C192.135 61.2747 192.002 61.2192 191.905 61.1214C191.807 61.0236 191.751 60.8913 191.75 60.753ZM191.845 66.831H192.701V62.272H191.845V66.831ZM193.795 64.552C193.795 63.175 194.65 62.177 195.79 62.177C196.74 62.177 197.263 62.89 197.405 63.127L196.788 63.602C196.693 63.412 196.359 62.985 195.79 62.985C195.124 62.985 194.65 63.65 194.65 64.552C194.65 65.52 195.143 66.119 195.79 66.119C196.408 66.119 196.788 65.644 196.883 65.502L197.453 65.976C197.311 66.214 196.741 66.926 195.79 66.926C194.65 66.926 193.795 65.929 193.795 64.552ZM198.12 65.644C198.12 64.932 198.547 64.371 199.45 64.172L200.637 63.906V63.763C200.637 63.318 200.353 62.984 199.877 62.984C199.307 62.984 199.002 63.394 198.907 63.536L198.357 63.032C198.453 62.889 198.927 62.178 199.925 62.178C200.875 62.178 201.494 62.795 201.494 63.745V66.831H200.637V66.214H200.609C200.504 66.4307 200.339 66.6128 200.133 66.7389C199.928 66.865 199.691 66.9299 199.45 66.926C198.69 66.926 198.12 66.404 198.12 65.644ZM200.637 64.884V64.58L199.64 64.827C199.213 64.932 198.975 65.17 198.975 65.549C198.975 65.929 199.26 66.167 199.592 66.167C200.21 66.167 200.637 65.643 200.637 64.884ZM202.921 66.831H203.775V60.183H202.921V66.831ZM151.537 75.637V71.268H152.487V75.59C152.487 76.54 153.057 77.108 153.77 77.108C154.482 77.108 155.053 76.539 155.053 75.59V71.268H156.003V75.637C156.003 76.966 155.053 78.012 153.77 78.012C152.487 78.012 151.537 76.966 151.537 75.637ZM157.43 73.357H158.286V73.879H158.315C158.553 73.499 158.999 73.262 159.474 73.262C160.377 73.262 160.948 73.832 160.948 75.02V77.916H160.092V75.066C160.092 74.45 159.759 74.07 159.284 74.07C158.667 74.07 158.286 74.45 158.286 75.21V77.916H157.431V73.357M162.184 71.838C162.184 71.553 162.422 71.316 162.707 71.316C162.992 71.316 163.229 71.553 163.229 71.838C163.228 71.976 163.172 72.1081 163.075 72.2057C162.977 72.3033 162.845 72.3587 162.707 72.36C162.569 72.3587 162.437 72.3033 162.339 72.2057C162.241 72.1081 162.186 71.9761 162.184 71.838ZM162.279 77.916H163.135V73.357H162.279V77.916ZM163.944 73.357H164.894L165.929 76.729H165.959L167.032 73.357H167.935L166.414 77.917H165.464L163.944 73.357ZM168.506 75.637C168.506 74.26 169.362 73.262 170.501 73.262C171.642 73.262 172.403 74.26 172.403 75.494C172.403 75.732 172.354 75.969 172.354 75.969H169.38C169.456 76.681 169.932 77.204 170.597 77.204C171.309 77.204 171.737 76.729 171.785 76.634L172.26 77.157C172.073 77.4242 171.824 77.6418 171.535 77.7908C171.245 77.9398 170.923 78.0158 170.597 78.012C169.333 78.012 168.507 76.966 168.507 75.637M171.537 75.209C171.471 74.487 171.044 74.069 170.501 74.069C169.951 74.069 169.533 74.506 169.39 75.209H171.537ZM173.497 73.357H174.353V73.879H174.381C174.524 73.642 174.924 73.262 175.588 73.262H175.731V74.165H175.446C174.78 74.165 174.353 74.649 174.353 75.399V77.916H173.497V73.357ZM176.302 77.204L176.872 76.681C177.062 76.966 177.347 77.204 177.728 77.204C178.155 77.204 178.44 76.966 178.44 76.634C178.44 76.254 178.108 76.111 177.68 75.922C177.157 75.684 176.492 75.39 176.492 74.544C176.492 73.88 176.967 73.263 177.823 73.263C178.44 73.263 178.915 73.548 179.201 73.88L178.641 74.383C178.545 74.289 178.345 74.022 177.918 74.022C177.585 74.022 177.347 74.259 177.347 74.544C177.347 74.924 177.727 75.114 178.155 75.304C178.745 75.561 179.297 75.884 179.297 76.681C179.297 77.442 178.726 78.011 177.775 78.011C176.872 78.011 176.35 77.3 176.302 77.204ZM180.295 71.838C180.295 71.553 180.533 71.316 180.818 71.316C181.103 71.316 181.34 71.553 181.34 71.838C181.339 71.976 181.283 72.1081 181.186 72.2057C181.088 72.3033 180.956 72.3587 180.818 72.36C180.68 72.3587 180.548 72.3033 180.45 72.2057C180.352 72.1081 180.297 71.9761 180.295 71.838ZM180.39 77.916H181.246V73.357H180.39V77.916ZM182.909 76.681V74.165H182.244V73.358H182.624C182.861 73.358 183.004 73.215 183.004 72.93V71.885H183.764V73.358H184.572V74.165H183.764V76.635C183.764 77.014 183.954 77.205 184.287 77.205C184.477 77.205 184.619 77.157 184.714 77.109V77.917C184.572 77.964 184.334 78.011 184.097 78.011C183.335 78.011 182.909 77.585 182.909 76.681ZM185.429 79.768V79.009C185.562 79.0729 185.709 79.1051 185.857 79.103C186.142 79.103 186.36 78.961 186.474 78.619L186.711 77.916L185.191 73.357H186.093L187.159 76.73H187.186L188.233 73.357H189.088L187.378 78.58C187.082 79.484 186.711 79.91 185.999 79.91C185.801 79.9032 185.607 79.8548 185.429 79.768ZM90.338 77.745V48.773H81.29V41.786H107.248V48.773H98.201V77.745H90.338ZM120.302 63.618C120.302 68.601 122.58 71.273 126.892 71.273C131.152 71.273 133.432 68.601 133.432 63.618V41.786H141.012V63.671C141.012 72.351 135.859 78.258 126.892 78.258C117.874 78.258 112.722 72.351 112.722 63.671V41.786H120.302V63.618ZM80.895 25.247V24.554H88.968V25.051C88.968 28.308 90.924 30.015 94.131 30.015C96.335 30.015 97.888 29.26 98.644 28.009C98.944 27.461 99.089 26.851 99.089 26.158C99.089 25.558 98.995 25.051 98.747 24.554C98.136 23.551 96.843 22.744 94.586 22.3L90.219 21.441C86.566 20.697 83.855 19.093 82.447 16.538C81.599 15.028 81.143 13.332 81.143 11.274C81.143 9.123 81.599 7.272 82.551 5.669C84.61 2.11 88.77 0 94.328 0C102.503 0 107.564 4.159 107.564 11.574V12.277H99.44V11.771C99.44 8.564 97.536 6.868 94.286 6.868C92.072 6.868 90.52 7.613 89.816 8.875C89.463 9.423 89.319 10.023 89.319 10.726C89.319 11.326 89.422 11.822 89.671 12.277C90.271 13.332 91.575 14.026 93.831 14.481L98.136 15.328C101.851 16.083 104.553 17.79 106.011 20.345C106.861 21.845 107.264 23.551 107.264 25.651C107.264 27.761 106.809 29.664 105.908 31.267C103.808 34.825 99.647 36.873 94.079 36.873C85.914 36.873 80.895 32.663 80.895 25.247ZM120.31 15.01H137.64V21.688H120.31V29.444H141.01V36.328H112.728V0.37H141.009V7.048H120.309L120.31 15.01ZM69.018 5.113C69.225 4.702 69.395 3.988 69.395 3.527V2.254C69.395 1.794 69.15 1.693 68.962 1.693C68.773 1.693 68.54 1.753 68.332 2.164L54.418 30.704L60.398 3.804L60.755 2.233C60.857 1.783 60.563 1.416 60.102 1.416H59.79C59.328 1.416 58.868 1.783 58.765 2.233L58.34 4.826L52.636 30.651V2.254C52.6355 2.03208 52.5472 1.81939 52.3903 1.66238C52.2335 1.50537 52.0209 1.41679 51.799 1.416H51.547C51.3249 1.41653 51.1121 1.50499 50.955 1.66203C50.798 1.81907 50.7095 2.03191 50.709 2.254V5.224L50.65 34.775C50.064 45.685 43.092 52.079 34.698 52.164C26.304 52.079 19.333 45.716 18.747 34.806L18.687 5.224V2.254C18.6865 2.03156 18.5977 1.81842 18.4403 1.66132C18.2828 1.50422 18.0694 1.416 17.847 1.416H17.597C17.3748 1.41653 17.1619 1.50495 17.0047 1.66197C16.8475 1.81898 16.7588 2.03182 16.758 2.254V30.65L11.056 4.106L10.63 2.233C10.528 1.783 10.068 1.416 9.606 1.416H9.293C8.833 1.416 8.538 1.783 8.641 2.233L8.997 3.804L15.051 30.767L1.064 2.164C0.856 1.752 0.623 1.693 0.434 1.693C0.245 1.693 0 1.793 0 2.253V3.527C0 3.988 0.17 4.702 0.378 5.113L16.658 38.245L0.694 20.193C0.382 19.854 0 20.069 0 20.53V21.465C0 21.925 0.255 22.579 0.569 22.919L17.52 42.045L18.305 44.784L0.718 32.71C0.323 32.472 0 32.654 0 33.115V33.705C0 34.165 0.323 34.737 0.718 34.975L18.904 47.41L19.277 49.059L0.812 42.842C0.365 42.727 0 43.01 0 43.47V43.798C0 44.258 0.365 44.73 0.812 44.846L19.76 51.187L20.032 52.38H1.258C0.797 52.38 0.469 52.674 0.531 53.031C0.592 53.39 1.155 54.319 1.616 54.319H20.473L20.993 56.614L3.753 60.671C3.306 60.777 3.069 61.133 3.228 61.464C3.388 61.794 4.201 62.558 4.648 62.453L21.423 58.505L22.328 62.49L10.435 69.638C10.155 69.798 10.151 70.122 10.425 70.361L10.988 70.851C11.262 71.091 11.712 71.155 11.993 70.995L22.781 64.485L23.856 69.217L18.531 74.947C18.281 75.215 18.338 75.562 18.658 75.722L19.315 76.05C19.636 76.21 20.098 76.123 20.349 75.856L24.378 71.513L25.633 77.1C25.717 77.55 26.085 77.996 26.453 78.095L27.209 78.295C27.579 78.395 27.811 78.11 27.727 77.658L25.975 69.781L30.489 64.877L33.757 71.362L31.078 76.678L30.283 78.134C30.091 78.491 30.223 78.827 30.574 78.883L31.294 78.997C31.648 79.053 32.087 78.809 32.28 78.451L32.971 77.188L32.991 77.193L33.247 76.685L33.378 76.443H33.368L33.486 76.211L34.466 74.265L34.698 73.805L35.91 76.211L36.027 76.443H36.017L36.149 76.685L36.405 77.193L36.424 77.188L37.116 78.451C37.308 78.809 37.748 79.053 38.101 78.997L38.821 78.883C39.173 78.827 39.303 78.491 39.113 78.134L38.318 76.678L35.638 71.362L38.907 64.877L43.421 69.781L42.001 76.037C42.006 76.037 42.009 76.035 42.014 76.034L41.669 77.658C41.585 78.11 41.816 78.395 42.186 78.296L42.942 78.095C43.312 77.996 43.679 77.55 43.762 77.1L44.023 75.889L45.017 71.513L45.586 72.129L46.8 73.449L47.83 74.566L47.807 74.576L48.457 75.246L48.56 75.359L48.564 75.358L49.047 75.856C49.297 76.123 49.76 76.21 50.081 76.05L50.737 75.722C51.058 75.562 51.116 75.215 50.865 74.948L45.539 69.218L46.614 64.484L55.959 70.16C55.9498 70.1679 55.9405 70.1755 55.931 70.183L56.65 70.58L56.79 70.665L56.796 70.66L57.403 70.995C57.683 71.155 58.133 71.091 58.408 70.851L58.971 70.361C59.245 70.121 59.241 69.798 58.961 69.638L47.066 62.49L47.971 58.505L64.746 62.453C65.194 62.558 66.008 61.794 66.167 61.463C66.327 61.133 66.089 60.777 65.641 60.671L48.401 56.614L48.922 54.319H67.78C68.24 54.319 68.804 53.389 68.865 53.031C68.925 52.674 68.599 52.38 68.138 52.38H49.364L49.634 51.187L68.584 44.846C69.03 44.73 69.394 44.258 69.394 43.798V43.47C69.394 43.01 69.03 42.728 68.584 42.843L50.12 49.06L50.493 47.411L68.679 34.978C69.074 34.739 69.396 34.168 69.396 33.707V33.117C69.396 32.656 69.074 32.474 68.679 32.712L51.089 44.784L51.883 41.854L68.827 22.92C69.139 22.58 69.395 21.926 69.395 21.466V20.531C69.395 20.071 69.014 19.855 68.702 20.194L52.707 38.244L69.018 5.113ZM38.177 56.2L40.796 56.816L40.076 58.243L37.651 56.77L38.177 56.2ZM31.219 56.2L31.745 56.77L29.32 58.243L28.6 56.816L31.219 56.2ZM22.462 54.318H25.17L25.762 55.491L22.882 56.169L22.462 54.318ZM24.077 61.428L23.312 58.06L26.658 57.273L27.656 59.253L24.076 61.427L24.077 61.428ZM25.453 67.482L24.529 63.422L28.532 60.99L29.558 63.025L25.453 67.482ZM30.194 59.98L33.084 58.225L33.531 58.711L30.961 61.501L30.194 59.98ZM34.698 68.917L31.894 63.352L34.698 60.307L37.502 63.352L34.698 68.917ZM38.435 61.502L35.864 58.711L36.312 58.225L39.201 59.98L38.435 61.502ZM43.943 67.482L39.838 63.025L40.864 60.99L44.866 63.421L43.943 67.482ZM45.319 61.427L41.739 59.254L42.736 57.273L46.084 58.06L45.319 61.427ZM46.513 56.169L43.634 55.491L44.226 54.318H46.934L46.513 56.169ZM156.125 31.539H156.98V32.061H157.009C157.135 31.869 157.307 31.7118 157.51 31.6038C157.713 31.4958 157.939 31.4405 158.169 31.443C159.071 31.443 159.642 32.013 159.642 33.201V36.098H158.786V33.248C158.786 32.631 158.453 32.251 157.978 32.251C157.361 32.251 156.98 32.631 156.98 33.391V36.098H156.125V31.539ZM162.828 32.774C162.828 30.874 163.968 29.354 165.631 29.354C167.294 29.354 168.434 30.874 168.434 32.774C168.434 34.673 167.294 36.192 165.631 36.192C163.968 36.192 162.828 34.672 162.828 32.774ZM167.484 32.774C167.484 31.254 166.675 30.256 165.631 30.256C164.585 30.256 163.778 31.253 163.778 32.774C163.778 34.294 164.585 35.29 165.631 35.29C166.675 35.29 167.484 34.293 167.484 32.774ZM169.53 30.019C169.53 29.734 169.769 29.496 170.053 29.496C170.338 29.496 170.575 29.734 170.575 30.019C170.574 30.1572 170.519 30.2895 170.421 30.3873C170.323 30.4851 170.191 30.5407 170.053 30.542C169.915 30.5407 169.782 30.4852 169.685 30.3874C169.587 30.2896 169.531 30.1573 169.53 30.019ZM169.626 36.098H170.481V31.538H169.626V36.098ZM171.811 31.539H172.667V32.061H172.695C172.838 31.823 173.237 31.443 173.902 31.443H174.045V32.346H173.76C173.094 32.346 172.667 32.83 172.667 33.58V36.098H171.811V31.539ZM174.57 33.818C174.57 32.347 175.33 31.443 176.374 31.443C176.897 31.443 177.324 31.633 177.629 32.109H177.657V29.449H178.513V36.098H177.657V35.528H177.629C177.325 36.002 176.897 36.193 176.374 36.193C175.329 36.193 174.569 35.29 174.569 33.818M177.657 33.818C177.657 32.868 177.182 32.251 176.564 32.251C175.9 32.251 175.424 32.915 175.424 33.818C175.424 34.72 175.9 35.385 176.564 35.385C177.182 35.385 177.657 34.767 177.657 33.818ZM179.94 29.449H180.796V32.06H180.824C181.063 31.68 181.509 31.444 181.984 31.444C182.887 31.444 183.457 32.014 183.457 33.2V36.098H182.602V33.248C182.602 32.63 182.269 32.25 181.794 32.25C181.176 32.25 180.796 32.63 180.796 33.39V36.098H179.941V29.448M184.552 33.818C184.552 32.441 185.407 31.443 186.546 31.443C187.688 31.443 188.447 32.441 188.447 33.676C188.447 33.914 188.4 34.15 188.4 34.15H185.425C185.502 34.863 185.977 35.385 186.642 35.385C187.355 35.385 187.782 34.91 187.831 34.815L188.305 35.337C188.119 35.6046 187.87 35.8225 187.58 35.9717C187.29 36.1209 186.968 36.1969 186.642 36.193C185.378 36.193 184.552 35.148 184.552 33.818ZM187.583 33.391C187.516 32.668 187.089 32.251 186.546 32.251C185.996 32.251 185.578 32.688 185.435 33.391H187.583ZM189.447 30.019C189.447 29.734 189.685 29.496 189.97 29.496C190.256 29.496 190.494 29.734 190.494 30.019C190.493 30.1575 190.437 30.2899 190.339 30.3877C190.241 30.4856 190.108 30.541 189.97 30.542C189.832 30.5407 189.699 30.4852 189.602 30.3874C189.504 30.2896 189.448 30.1573 189.447 30.019ZM189.543 36.098H190.398V31.538H189.543V36.098ZM191.443 35.386L192.013 34.863C192.203 35.148 192.489 35.386 192.87 35.386C193.296 35.386 193.582 35.148 193.582 34.816C193.582 34.436 193.249 34.293 192.822 34.103C192.299 33.865 191.633 33.572 191.633 32.726C191.633 32.06 192.109 31.443 192.964 31.443C193.582 31.443 194.056 31.728 194.342 32.06L193.782 32.565C193.686 32.469 193.486 32.203 193.06 32.203C192.726 32.203 192.489 32.441 192.489 32.726C192.489 33.106 192.869 33.296 193.296 33.486C193.886 33.741 194.438 34.066 194.438 34.863C194.438 35.623 193.867 36.193 192.916 36.193C192.014 36.193 191.492 35.48 191.443 35.386ZM195.294 33.818C195.294 32.441 196.149 31.443 197.289 31.443C198.24 31.443 198.762 32.156 198.905 32.393L198.287 32.868C198.193 32.678 197.859 32.251 197.289 32.251C196.624 32.251 196.149 32.915 196.149 33.818C196.149 34.787 196.643 35.385 197.289 35.385C197.907 35.385 198.287 34.91 198.382 34.767L198.952 35.243C198.811 35.48 198.24 36.193 197.289 36.193C196.149 36.193 195.294 35.195 195.294 33.818ZM199.81 30.019C199.81 29.734 200.047 29.496 200.332 29.496C200.617 29.496 200.855 29.734 200.855 30.019C200.854 30.1573 200.798 30.2896 200.7 30.3874C200.603 30.4852 200.47 30.5407 200.332 30.542C200.194 30.5407 200.061 30.4852 199.964 30.3874C199.866 30.2896 199.811 30.1573 199.81 30.019ZM199.905 36.098H200.76V31.538H199.905V36.098ZM202.091 31.539H202.946V32.061H202.976C203.118 31.823 203.518 31.443 204.182 31.443H204.325V32.346H204.04C203.374 32.346 202.946 32.83 202.946 33.58V36.098H202.091V31.539ZM205.514 34.863V32.347H204.849V31.539H205.229C205.465 31.539 205.609 31.396 205.609 31.111V30.066H206.369V31.539H207.177V32.347H206.369V34.816C206.369 35.195 206.559 35.386 206.892 35.386C207.082 35.386 207.224 35.337 207.319 35.29V36.098C207.177 36.145 206.939 36.192 206.702 36.192C205.942 36.192 205.514 35.766 205.514 34.863ZM151.537 34.777C151.537 34.064 151.964 33.504 152.867 33.305L154.054 33.038V32.896C154.054 32.45 153.77 32.116 153.294 32.116C152.724 32.116 152.42 32.526 152.325 32.668L151.774 32.165C151.869 32.021 152.344 31.31 153.342 31.31C154.292 31.31 154.91 31.927 154.91 32.877V35.963H154.054V35.346H154.026C153.921 35.5629 153.756 35.7452 153.55 35.8715C153.345 35.9978 153.108 36.0628 152.867 36.059C152.107 36.059 151.537 35.537 151.537 34.777ZM154.054 34.017V33.713L153.057 33.96C152.629 34.064 152.391 34.302 152.391 34.681C152.389 34.7628 152.403 34.8443 152.433 34.9204C152.463 34.9965 152.509 35.0657 152.566 35.1235C152.624 35.1814 152.693 35.2269 152.77 35.257C152.846 35.2872 152.927 35.3015 153.009 35.299C153.627 35.299 154.054 34.777 154.054 34.017Z" fill="#435465"/>
</g>
<defs>
<clipPath id="clip0_26_38">
<rect width="211" height="80" fill="white"/>
</clipPath>
</defs>
</svg>
